<svg width="253" height="117" viewBox="0 0 253 117" fill="none" xmlns="http://www.w3.org/2000/svg">
<path d="M200.044 89.824C200.044 85.92 200.748 82.336 202.22 79.008C203.628 75.744 205.548 72.928 208.108 70.496C210.54 68.192 213.484 66.336 216.94 64.992C220.332 63.712 223.98 63.008 227.948 63.008C233.196 63.008 237.804 64.096 241.644 66.208C245.484 68.384 248.94 71.584 252.012 75.808L243.244 83.168C241.644 80.352 239.66 78.112 237.292 76.448C234.86 74.784 231.852 73.952 228.268 73.952C226.028 73.952 223.98 74.4 222.188 75.168C220.332 76 218.796 77.088 217.516 78.496C216.172 79.968 215.148 81.632 214.444 83.552C213.676 85.536 213.356 87.648 213.356 89.824C213.356 92.064 213.676 94.112 214.444 96.032C215.084 97.952 216.108 99.616 217.452 101.024C218.732 102.496 220.332 103.648 222.252 104.416C224.044 105.248 226.092 105.632 228.396 105.632C230.188 105.632 231.852 105.44 233.388 104.992C234.796 104.608 236.14 103.968 237.42 103.136C238.572 102.368 239.724 101.344 240.748 100.192C241.708 99.04 242.604 97.76 243.5 96.288L252.076 103.904C249.132 108 245.804 111.072 241.964 113.312C238.06 115.488 233.388 116.64 227.948 116.64C223.98 116.64 220.332 115.936 216.94 114.656C213.484 113.312 210.54 111.456 208.108 109.152C205.548 106.784 203.628 103.968 202.22 100.64C200.748 97.376 200.044 93.792 200.044 89.824Z" fill="#303030"/>
<path d="M192.386 64.352V115.36H179.074V64.352H192.386Z" fill="#303030"/>
<path d="M124.324 64.352H137.636L156.772 95.264V64.352H170.084V115.36H156.772L137.636 83.872V115.36H124.324V64.352Z" fill="#303030"/>
<path d="M115.386 64.352V115.36H102.074V64.352H115.386Z" fill="#303030"/>
<path d="M58.6362 64.352H71.9482V104.352H96.3322V115.36H58.6362V64.352Z" fill="#303030"/>
<path d="M0.668751 89.824C0.668751 85.92 1.37275 82.336 2.84475 79.008C4.25275 75.744 6.17275 72.928 8.73275 70.496C11.1648 68.192 14.1088 66.336 17.5648 64.992C20.9568 63.712 24.6048 63.008 28.5728 63.008C33.8208 63.008 38.4288 64.096 42.2688 66.208C46.1088 68.384 49.5648 71.584 52.6368 75.808L43.8688 83.168C42.2688 80.352 40.2848 78.112 37.9168 76.448C35.4848 74.784 32.4768 73.952 28.8928 73.952C26.6528 73.952 24.6048 74.4 22.8128 75.168C20.9568 76 19.4208 77.088 18.1408 78.496C16.7968 79.968 15.7728 81.632 15.0688 83.552C14.3008 85.536 13.9808 87.648 13.9808 89.824C13.9808 92.064 14.3008 94.112 15.0688 96.032C15.7088 97.952 16.7328 99.616 18.0768 101.024C19.3568 102.496 20.9568 103.648 22.8768 104.416C24.6688 105.248 26.7168 105.632 29.0208 105.632C30.8128 105.632 32.4768 105.44 34.0128 104.992C35.4208 104.608 36.7648 103.968 38.0448 103.136C39.1968 102.368 40.3488 101.344 41.3728 100.192C42.3328 99.04 43.2288 97.76 44.1248 96.288L52.7008 103.904C49.7568 108 46.4288 111.072 42.5888 113.312C38.6848 115.488 34.0128 116.64 28.5728 116.64C24.6048 116.64 20.9568 115.936 17.5648 114.656C14.1088 113.312 11.1648 111.456 8.73275 109.152C6.17275 106.784 4.25275 103.968 2.84475 100.64C1.37275 97.376 0.668751 93.792 0.668751 89.824Z" fill="#303030"/>
<path d="M219.021 51.808V39.52H232.141V51.808H219.021Z" fill="#303030"/>
<path d="M200.486 11.36V51.36H187.174V11.36H170.982V0.351997H216.678V11.36H200.486Z" fill="#303030"/>
<path d="M134.311 0.351997L143.591 14.624L152.935 0.351997H167.591L151.079 26.08L167.591 51.36H152.423L143.591 37.664L134.823 51.36H119.655L136.167 26.08L119.655 0.351997H134.311Z" fill="#303030"/>
<path d="M113.381 19.808V30.816H88.2295V40.416H115.237V51.36H74.9175V0.351997H114.597V11.36H88.2295V19.808H113.381Z" fill="#303030"/>
<path d="M20.1675 0.351997H33.4795L52.6155 31.264V0.351997H65.9275V51.36H52.6155L33.4795 19.872V51.36H20.1675V0.351997Z" fill="#303030"/>
</svg>
